<svg xmlns="http://www.w3.org/2000/svg" viewBox="0 0 900 1100" role="img" aria-label="Pashmina voal warna dusty rose">
  <defs>
    <linearGradient id="bg" x1="0" y1="0" x2="1" y2="1">
      <stop offset="0" stop-color="#fff7f5"/>
      <stop offset="1" stop-color="#efe7ff"/>
    </linearGradient>
    <linearGradient id="cloth" x1="0" y1="0" x2="1" y2="1">
      <stop offset="0" stop-color="#d9a7a7"/>
      <stop offset="0.55" stop-color="#b97884"/>
      <stop offset="1" stop-color="#8f5265"/>
    </linearGradient>
    <filter id="shadow" x="-20%" y="-20%" width="140%" height="140%">
      <feDropShadow dx="0" dy="26" stdDeviation="22" flood-color="#533047" flood-opacity=".24"/>
    </filter>
  </defs>
  <rect width="900" height="1100" fill="url(#bg)"/>
  <circle cx="150" cy="170" r="95" fill="#f6d7cf" opacity=".65"/>
  <circle cx="760" cy="900" r="130" fill="#ded2ff" opacity=".6"/>
  <g filter="url(#shadow)">
    <path d="M276 165c112 4 284 24 378 118 71 72 72 168 28 241-57 94-188 124-245 206-51 73-4 162-35 225-23 46-94 65-151 40-75-34-97-126-70-216 29-97 114-155 115-245 1-72-50-133-63-205-13-76 10-134 43-164Z" fill="url(#cloth)"/>
    <path d="M308 218c101 25 214 71 293 160 61 69 79 140 70 202-33-45-91-75-158-100-79-29-167-60-205-128-24-44-24-92 0-134Z" fill="#f2c2bd" opacity=".58"/>
    <path d="M254 712c72 28 154 24 236-11 65-27 124-73 175-137-9 79-67 128-127 174-69 53-139 105-155 184-11 54-57 73-103 53-61-27-80-121-26-263Z" fill="#7c4458" opacity=".35"/>
    <path d="M354 252c91 40 173 93 247 159" fill="none" stroke="#fff2ef" stroke-width="12" stroke-linecap="round" opacity=".48"/>
    <path d="M295 772c94-6 177-33 249-81" fill="none" stroke="#fff2ef" stroke-width="10" stroke-linecap="round" opacity=".38"/>
  </g>
  <text x="450" y="1010" text-anchor="middle" font-family="Arial, sans-serif" font-size="38" font-weight="700" fill="#6b4153">PASHMINA VOAL</text>
</svg>
