<svg xmlns="http://www.w3.org/2000/svg" viewBox="0 0 900 1100" role="img" aria-label="Pashmina silk warna champagne">
  <defs>
    <linearGradient id="bg" x1="0" y1="0" x2="1" y2="1">
      <stop offset="0" stop-color="#fffaf0"/>
      <stop offset="1" stop-color="#f3f0ff"/>
    </linearGradient>
    <linearGradient id="cloth" x1="0" y1="0" x2="1" y2="1">
      <stop offset="0" stop-color="#f3dcae"/>
      <stop offset="0.5" stop-color="#d2aa64"/>
      <stop offset="1" stop-color="#9d7534"/>
    </linearGradient>
    <filter id="shadow" x="-20%" y="-20%" width="140%" height="140%">
      <feDropShadow dx="0" dy="26" stdDeviation="22" flood-color="#4a3519" flood-opacity=".22"/>
    </filter>
  </defs>
  <rect width="900" height="1100" fill="url(#bg)"/>
  <circle cx="720" cy="180" r="105" fill="#f8dca5" opacity=".45"/>
  <circle cx="170" cy="880" r="115" fill="#dcd7ff" opacity=".5"/>
  <g filter="url(#shadow)">
    <path d="M330 142c106 28 215 95 287 187 67 85 76 183 24 257-54 77-153 104-191 191-31 72 8 140-25 188-30 43-105 45-157 7-75-54-83-156-42-246 39-84 111-136 123-217 11-76-36-137-52-210-14-64-5-116 33-157Z" fill="url(#cloth)"/>
    <path d="M358 209c101 44 182 103 243 178 43 53 51 111 28 166-45-71-122-100-191-149-70-51-103-111-80-195Z" fill="#fff1cf" opacity=".62"/>
    <path d="M257 730c68 18 139 8 214-31 67-35 123-87 170-157-2 86-55 146-116 198-68 59-136 112-131 197-42 32-91 20-122-19-37-47-43-112-15-188Z" fill="#7a5521" opacity=".3"/>
    <path d="M395 238c88 42 158 94 210 155" fill="none" stroke="#fff8e6" stroke-width="12" stroke-linecap="round" opacity=".62"/>
    <path d="M299 773c90-9 166-44 229-105" fill="none" stroke="#fff8e6" stroke-width="10" stroke-linecap="round" opacity=".48"/>
  </g>
  <text x="450" y="1010" text-anchor="middle" font-family="Arial, sans-serif" font-size="38" font-weight="700" fill="#7c5b2d">PASHMINA SILK</text>
</svg>
