<svg xmlns="http://www.w3.org/2000/svg" viewBox="0 0 900 1100" role="img" aria-label="Pashmina ceruty warna sage">
  <defs>
    <linearGradient id="bg" x1="0" y1="0" x2="1" y2="1">
      <stop offset="0" stop-color="#f5fbf7"/>
      <stop offset="1" stop-color="#eef1ff"/>
    </linearGradient>
    <linearGradient id="cloth" x1="0" y1="0" x2="1" y2="1">
      <stop offset="0" stop-color="#b7cdbb"/>
      <stop offset="0.55" stop-color="#779b81"/>
      <stop offset="1" stop-color="#486b59"/>
    </linearGradient>
    <filter id="shadow" x="-20%" y="-20%" width="140%" height="140%">
      <feDropShadow dx="0" dy="26" stdDeviation="22" flood-color="#263f34" flood-opacity=".22"/>
    </filter>
  </defs>
  <rect width="900" height="1100" fill="url(#bg)"/>
  <rect x="90" y="90" width="720" height="920" rx="70" fill="#ffffff" opacity=".52"/>
  <g filter="url(#shadow)">
    <path d="M566 153c83 49 137 123 150 219 14 106-43 175-113 233-63 53-132 102-153 190-16 69 9 127-35 165-36 31-98 22-139-17-63-59-58-162-23-246 38-92 108-145 126-232 15-76-22-150 4-220 24-64 91-100 183-92Z" fill="url(#cloth)"/>
    <path d="M467 219c92 30 158 88 190 171 21 55 14 105-11 150-39-60-106-89-163-136-57-46-88-105-16-185Z" fill="#d8e8da" opacity=".55"/>
    <path d="M297 712c79 16 147-4 202-58 65-64 90-145 168-201-14 75-61 124-117 173-65 56-134 111-145 202-8 63-49 92-93 70-55-27-68-96-15-186Z" fill="#2e5244" opacity=".28"/>
    <path d="M498 253c75 43 126 92 155 147" fill="none" stroke="#f4fff6" stroke-width="12" stroke-linecap="round" opacity=".52"/>
    <path d="M325 760c81-18 150-55 206-111" fill="none" stroke="#f4fff6" stroke-width="10" stroke-linecap="round" opacity=".42"/>
  </g>
  <text x="450" y="1010" text-anchor="middle" font-family="Arial, sans-serif" font-size="38" font-weight="700" fill="#3e6655">PASHMINA CERUTY</text>
</svg>
